<svg width="48" height="48" viewBox="0 0 48 48" fill="none" xmlns="http://www.w3.org/2000/svg">
<circle cx="24" cy="24" r="24" fill="#5D5FEF"/>
<g clip-path="url(#clip0_56_316)">
<path d="M12.975 13.4246H35.025C36.886 13.4246 38.4 14.9386 38.4 16.7996V31.1996C38.4 33.0605 36.886 34.5746 35.025 34.5746H12.975C11.114 34.5746 9.60003 33.0605 9.60003 31.1996V16.7996C9.60003 14.9386 11.114 13.4246 12.975 13.4246ZM11.85 31.1996C11.85 31.8199 12.3547 32.3246 12.975 32.3246H35.025C35.6453 32.3246 36.15 31.8199 36.15 31.1996V16.7996C36.15 16.1792 35.6453 15.6746 35.025 15.6746H12.975C12.3547 15.6746 11.85 16.1792 11.85 16.7996V31.1996Z" fill="#F2C94C"/>
<path d="M12.041 14.8274L24 23.7226L35.959 14.8274L37.3019 16.6327L24 26.5268L10.6981 16.6327L12.041 14.8274Z" fill="#F2C94C"/>
</g>
<defs>
<clipPath id="clip0_56_316">
<rect width="28.8" height="28.8" fill="white" transform="matrix(-1 0 0 1 38.4 9.59961)"/>
</clipPath>
</defs>
</svg>
