<svg width="48" height="48" viewBox="0 0 48 48" fill="none" xmlns="http://www.w3.org/2000/svg">
<circle cx="24" cy="24" r="24" fill="#5D5FEF"/>
<g clip-path="url(#clip0_56_307)">
<path d="M24.4789 35.9878C24.4762 35.9878 24.4733 35.9878 24.4704 35.9878C23.5145 35.9813 15.0637 35.9042 12.6694 35.2566C10.9962 34.8068 9.67527 33.4874 9.22426 31.8139C8.59778 29.4619 8.63766 24.9337 8.64201 24.5721C8.6379 24.2122 8.59754 19.6465 9.22233 17.2752C9.22305 17.273 9.22354 17.2706 9.22426 17.2684C9.6702 15.614 11.0208 14.2537 12.6653 13.8027C12.6694 13.8015 12.6738 13.8005 12.6779 13.7993C15.0451 13.1771 23.5126 13.101 24.4704 13.0945H24.4876C25.4459 13.101 33.9192 13.1781 36.2915 13.8266C37.9604 14.2752 39.2803 15.5929 39.7326 17.2643C40.3825 19.6373 40.3223 24.2129 40.3158 24.5991C40.3204 24.9796 40.3583 29.4672 39.7355 31.831C39.735 31.8335 39.7343 31.8356 39.7338 31.8378C39.2825 33.5113 37.9619 34.8308 36.2866 35.2811C36.2845 35.2818 36.2821 35.2823 36.2799 35.283C33.9129 35.9049 25.4452 35.981 24.4876 35.9878C24.4847 35.9878 24.4818 35.9878 24.4789 35.9878ZM11.6147 17.9099C11.0646 20.003 11.1165 24.5104 11.117 24.5559V24.5885C11.1006 25.8386 11.1583 29.4588 11.6149 31.1734C11.8363 31.9944 12.4877 32.6448 13.3138 32.867C15.0804 33.3448 21.9633 33.4951 24.4789 33.5128C27.001 33.4951 33.8941 33.3489 35.6476 32.8902C36.4711 32.6673 37.1203 32.0191 37.3431 31.1971C37.8002 29.4573 37.8575 25.8548 37.8408 24.6127C37.8408 24.5996 37.8408 24.5866 37.841 24.5735C37.8637 23.3085 37.819 19.646 37.3453 17.9176C37.3448 17.9159 37.3443 17.9142 37.3441 17.9125C37.1217 17.0878 36.4701 16.4374 35.644 16.2153C33.8945 15.737 27.0005 15.5871 24.4789 15.5695C21.9585 15.5871 15.0722 15.7331 13.3133 16.1914C12.5029 16.4162 11.8368 17.0898 11.6147 17.9099ZM38.5388 31.5159H38.5395H38.5388ZM21.3245 29.5528V19.5293L29.987 24.5411L21.3245 29.5528Z" fill="#F2C94C"/>
</g>
<defs>
<clipPath id="clip0_56_307">
<rect width="31.68" height="31.68" fill="white" transform="translate(8.64001 8.63965)"/>
</clipPath>
</defs>
</svg>
